<svg width="448" height="118" viewBox="0 0 448 118" fill="none" xmlns="http://www.w3.org/2000/svg">
<path fill-rule="evenodd" clip-rule="evenodd" d="M402.748 72.272C403.619 72.3197 404.214 72.3846 404.808 72.3809C411.309 72.3421 417.809 72.2608 424.309 72.2561C430.97 72.251 431.063 72.2608 429.558 65.1965C428.339 59.468 425.498 54.8937 419.813 53.5088C414.468 52.2084 409.636 53.5971 406.177 58.4653C403.361 62.4304 402.437 67.0127 402.748 72.272ZM425.221 73.7195C418.454 73.7195 411.686 73.7635 404.919 73.6878C403.203 73.6691 402.555 74.2541 402.661 76.1179C403.044 82.8075 404.424 88.9859 410.405 92.6211C418.837 97.7468 428.639 93.1603 430.71 83.1397C431.007 81.7118 431.519 81.2375 432.809 81.3992C436.994 81.9263 441.176 82.5169 445.376 82.8724C447.473 83.0514 447.791 83.9803 447.413 85.9609C445.39 96.5922 439.471 103.823 430.037 107.407C419.175 111.535 408.46 110.993 398.416 104.348C393.553 101.132 390.149 96.5259 387.988 90.9614C384.018 80.7474 383.367 70.2227 386.734 59.7521C391.623 44.5446 404.774 36.045 419.972 37.8182C429.853 38.9727 438.316 42.792 443.69 52.3005C447.008 58.1738 448.086 64.6166 447.994 71.381C447.966 73.3028 447.086 73.7293 445.522 73.7205C438.756 73.6826 431.989 73.7046 425.221 73.7046V73.7195Z" fill="black"/>
<path fill-rule="evenodd" clip-rule="evenodd" d="M319.669 47.7216C324.361 47.7216 329.177 47.7033 333.992 47.7328C335.785 47.7435 335.682 49.1373 335.739 50.5073C336.032 57.4165 336.368 64.3228 336.721 71.2278C336.76 71.9866 336.995 72.7342 337.138 73.4869C337.44 73.494 337.442 73.494 337.744 73.5005C338.006 71.739 338.193 69.9046 338.571 68.1701C339.384 64.4565 340.207 60.6568 341.539 57.1553C345.384 47.0534 353.035 44.5938 361.94 46.2581C371.431 48.0327 375.835 53.8275 376.505 65.5424C376.791 70.5148 375.823 75.5681 375.447 80.5858C375.33 82.167 374.574 82.5688 373.162 82.4034C369.06 81.924 364.945 81.5465 360.834 81.1545C358.996 80.9802 358.458 80.0817 358.458 78.0337C358.454 74.0579 358.334 70.0111 357.622 66.1255C356.944 62.4426 354.398 60.2036 350.753 59.7611C347.159 59.3247 344.465 60.8577 342.532 64.0887C338.681 70.5232 337.147 77.7753 337.103 85.0957C337.05 94.7256 337.211 104.36 337.483 113.986C337.559 116.7 337.488 117.342 335.172 117.286C330.956 117.181 325.875 117.291 321.656 117.4C320.183 117.438 319.344 117.07 319.324 115.283C319.05 92.8982 319.603 70.8306 319.324 49.077C319.319 48.8126 319.455 48.5453 319.669 47.7216Z" fill="black"/>
<path fill-rule="evenodd" clip-rule="evenodd" d="M180.486 104.727C174.69 104.61 169.334 104.753 163.978 104.727C162.244 104.72 161.933 103.769 161.94 102.261C161.96 97.2117 161.931 92.1598 161.945 87.1102C161.989 70.6473 162.042 19.4506 162.094 2.98808C162.095 2.25497 162.118 1.52419 162.145 -0.000432817C167.301 0.102829 172.275 0.193473 177.248 0.307481C179.014 0.347664 179.009 1.67138 179.042 3.06891C179.188 9.42253 179.371 50.508 179.58 56.8593C179.608 57.7242 179.861 58.5811 180.011 59.4427C180.259 59.4637 180.507 59.4843 180.756 59.5067C180.969 58.7245 181.184 57.9428 181.396 57.1607C182.41 53.404 182.981 49.4268 184.521 45.9327C188.946 35.8949 197.004 32.947 207.02 33.6016C210.047 33.8002 213.164 34.4328 215.997 35.5552C222.501 38.1362 226.052 43.7278 227.263 50.6771C228.265 56.4229 228.647 62.3378 228.796 68.1914C229.07 79.1287 228.896 90.0773 229.085 101.018C229.135 103.891 228.202 104.757 225.601 104.647C221.476 104.472 217.335 104.536 213.206 104.668C211.124 104.737 210.514 103.933 210.515 101.742C210.518 88.7428 210.582 75.7389 210.228 62.7494C210.058 56.4425 208.169 50.6977 201.832 48.1965C194.607 45.3431 187.265 48.0148 183.915 55.3613C182.2 59.1217 180.948 63.4727 180.781 67.6139C180.334 78.7246 180.586 89.8679 180.554 100.996C180.552 102.097 180.519 102.894 180.486 104.727Z" fill="black"/>
<path fill-rule="evenodd" clip-rule="evenodd" d="M259.074 72.2717C259.945 72.3194 260.54 72.3857 261.134 72.3806C267.635 72.3418 274.135 72.2605 280.636 72.2558C287.298 72.2507 287.388 72.2605 285.884 65.1962C284.664 59.4678 281.823 54.8934 276.138 53.5085C270.795 52.2082 265.963 53.5968 262.504 58.4651C259.688 62.4301 258.762 67.0124 259.074 72.2717ZM281.546 73.7193C274.78 73.7193 268.011 73.7632 261.246 73.6875C259.527 73.6688 258.88 74.2538 258.987 76.1176C259.37 82.8072 260.751 88.9856 266.73 92.6199C275.162 97.7465 284.965 93.16 287.037 83.1394C287.333 81.7115 287.845 81.2373 289.134 81.4003C293.321 81.926 297.503 82.5166 301.701 82.8736C303.798 83.0511 304.117 83.98 303.741 85.9607C301.715 96.5919 295.798 103.823 286.362 107.408C275.501 111.535 264.786 110.993 254.741 104.348C249.878 101.133 246.475 96.5246 244.312 90.9611C240.342 80.7471 239.693 70.2215 243.059 59.7519C247.949 44.543 261.1 36.0447 276.297 37.8179C286.18 38.9725 294.644 42.7927 300.015 52.3002C303.334 58.1735 304.414 64.6164 304.319 71.3807C304.291 73.3025 303.413 73.7291 301.848 73.7202C295.081 73.6823 288.314 73.7043 281.546 73.7043V73.7193Z" fill="black"/>
<path fill-rule="evenodd" clip-rule="evenodd" d="M68.691 92.8186C68.7934 93.1181 68.7802 93.356 68.6449 93.6396C62.6544 106.183 50.4108 114.777 36.2798 114.777C16.2427 114.777 0 97.4972 0 76.1818C0 54.867 16.2427 37.5868 36.2798 37.5868C51.392 37.5868 64.3463 47.4172 69.8005 61.3939C69.9766 61.8448 69.9468 62.3471 69.8137 62.5835C69.6771 62.826 69.3042 63.1414 69.3042 63.1414L58.705 67.1883C58.705 67.1883 58.3567 67.3023 58.1871 67.2186C57.7787 67.0163 57.6772 66.565 57.4976 66.1285C53.8547 57.2789 45.5315 51.4533 35.8683 51.4533C22.8442 51.4533 12.8093 62.327 12.8093 76.1818C12.8093 90.0371 22.9904 100.903 36.0145 100.903C45.1296 100.903 52.9069 95.7679 56.8326 87.7163C56.9525 87.471 56.978 87.3322 57.22 87.2294C57.4976 87.1112 57.8867 87.3187 57.8867 87.3187L68.1473 92.3448C68.1473 92.3448 68.6071 92.5724 68.691 92.8186Z" fill="black"/>
<path d="M94.4497 109.203C94.4497 109.203 90.1643 106.772 88.1645 104.999C86.1648 103.226 84.0091 101.008 82.933 99.6945C81.4972 97.9419 81.2275 97.4765 79.7368 94.6865C77.7252 90.9215 77.4511 87.8484 76.8797 85.037C76.3083 82.2255 75.88 74.9314 76.0228 72.3484C76.1655 69.765 76.8797 64.5982 78.3796 60.7233C79.8796 56.8484 80.6477 55.6509 81.8503 54.0029C83.1807 52.1797 85.8121 48.8127 90.5279 45.8027C93.0477 44.194 95.9633 42.8287 100.158 41.5251C104.116 40.2953 108.11 40.0593 112.02 39.601C115.956 39.1393 118.209 39.0562 122.447 39.2211C124.09 39.2846 130.512 40.6794 134.375 44.3117C138.39 48.0866 140.827 50.3836 143.445 55.4046C145.522 59.387 146.66 62.1671 147.159 63.9146C147.659 65.6621 149.016 69.9169 149.445 74.7038C149.873 79.4903 149.732 83.1385 148.874 87.1643C147.896 91.7452 146.993 94.1427 144.736 98.3474C142.887 101.793 140.229 105.079 139.189 106.15C137.81 107.57 135.922 109.609 132.113 111.483C128.304 113.357 122.992 114.428 120.834 114.639C118.973 114.821 114.305 114.927 110.877 114.269C107.448 113.611 103.925 112.952 101.354 112.04C98.7826 111.128 94.4497 109.203 94.4497 109.203Z" fill="#FF7C06"/>
</svg>
